<svg width="60" height="60" viewBox="0 0 60 60" fill="none" xmlns="http://www.w3.org/2000/svg">
<path d="M44.2897 9.84213H14.7633C12.0455 9.84213 9.84229 12.0454 9.84229 14.7632V44.2895C9.84229 47.0073 12.0455 49.2106 14.7633 49.2106H44.2897C47.0075 49.2106 49.2107 47.0073 49.2107 44.2895V14.7632C49.2107 12.0454 47.0075 9.84213 44.2897 9.84213Z" stroke="#7C7C7C" stroke-width="3.47368" stroke-linecap="round" stroke-linejoin="round"/>
<path d="M36.9079 22.1447H22.1448V36.9079H36.9079V22.1447Z" stroke="#7C7C7C" stroke-width="3.47368" stroke-linecap="round" stroke-linejoin="round"/>
<path d="M22.1448 2.46057V9.84215" stroke="#7C7C7C" stroke-width="3.47368" stroke-linecap="round" stroke-linejoin="round"/>
<path d="M36.9078 2.46057V9.84215" stroke="#7C7C7C" stroke-width="3.47368" stroke-linecap="round" stroke-linejoin="round"/>
<path d="M22.1448 49.2105V56.5921" stroke="#7C7C7C" stroke-width="3.47368" stroke-linecap="round" stroke-linejoin="round"/>
<path d="M36.9078 49.2105V56.5921" stroke="#7C7C7C" stroke-width="3.47368" stroke-linecap="round" stroke-linejoin="round"/>
<path d="M49.2103 22.1447H56.5919" stroke="#7C7C7C" stroke-width="3.47368" stroke-linecap="round" stroke-linejoin="round"/>
<path d="M49.2103 34.4473H56.5919" stroke="#7C7C7C" stroke-width="3.47368" stroke-linecap="round" stroke-linejoin="round"/>
<path d="M2.46069 22.1447H9.84227" stroke="#7C7C7C" stroke-width="3.47368" stroke-linecap="round" stroke-linejoin="round"/>
<path d="M2.46069 34.4473H9.84227" stroke="#7C7C7C" stroke-width="3.47368" stroke-linecap="round" stroke-linejoin="round"/>
</svg>
