<svg width="25" height="24" viewBox="0 0 25 24" fill="none" xmlns="http://www.w3.org/2000/svg">
<path d="M19.2078 11H5.05471C3.93806 11 3.03284 11.8954 3.03284 13V20C3.03284 21.1046 3.93806 22 5.05471 22H19.2078C20.3245 22 21.2297 21.1046 21.2297 20V13C21.2297 11.8954 20.3245 11 19.2078 11Z" stroke="#7C7C7C" stroke-width="2" stroke-linecap="round" stroke-linejoin="round"/>
<path d="M7.07654 11V7C7.07654 5.67392 7.60908 4.40215 8.55702 3.46447C9.50496 2.52678 10.7906 2 12.1312 2C13.4718 2 14.7575 2.52678 15.7054 3.46447C16.6534 4.40215 17.1859 5.67392 17.1859 7V11" stroke="#7C7C7C" stroke-width="2" stroke-linecap="round" stroke-linejoin="round"/>
</svg>
